<!-- icon666.com - MILLIONS vector ICONS FREE --><svg fill="none" viewBox="0 0 48 48" xmlns="http://www.w3.org/2000/svg"><path clip-rule="evenodd" d="m41 6.00145h3c.552 0 1 .448 1 1v8.00005c0 .552-.448 1-1 1h-36c-.552 0-1-.448-1-1v-3h-3c-.552 0-1-.504-1-1.125v-6.75005c0-.621.448-1.125 1-1.125h36c.552 0 1 .504 1 1.125zm0 31.00005h3c.552 0 1 .448 1 1v6c0 .552-.448 1-1 1l-36-.125c-.552 0-1-.448-1-1v-2.875h-3c-.552 0-1-.504-1-1.125v-5.875c0-.621.448-1.125 1-1.125l36 .125c.552 0 1 .504 1 1.125zm-14-16h3c.552 0 1 .448 1 1v8c0 .552-.448 1-1 1h-22c-.552 0-1-.448-1-1v-3h-3c-.552 0-1-.504-1-1.125v-6.75c0-.621.448-1.125 1-1.125h22c.552 0 1 .504 1 1.125zm-18-9h31c.552 0 1-.504 1-1.125v-2.87505h2v6.00005h-34zm0 29 31 .125c.552 0 1-.504 1-1.125v-1h2v4l-34-.125zm0-14h17c.552 0 1-.504 1-1.125v-2.875h2v6h-20z" fill="rgb(0,0,0)" fill-rule="evenodd"></path></svg>